<svg xmlns="http://www.w3.org/2000/svg" width="8" height="5" fill="none"><path fill="#526484" d="M4 4.213a.657.657 0 0 1-.232-.041.842.842 0 0 1-.178-.137L.678 1.123A.568.568 0 0 1 .555.945.656.656 0 0 1 .514.713.54.54 0 0 1 .678.316a.563.563 0 0 1 .41-.177.55.55 0 0 1 .219.04.531.531 0 0 1 .191.124L4 2.805 6.502.303A.568.568 0 0 1 6.68.18a.656.656 0 0 1 .232-.041.52.52 0 0 1 .397.177.52.52 0 0 1 .177.397c0 .082-.013.16-.04.232a.568.568 0 0 1-.124.178L4.41 4.035a.73.73 0 0 1-.191.137.55.55 0 0 1-.219.04Z"/></svg>